<?xml version="1.0" standalone="no"?>
<!DOCTYPE svg PUBLIC "-//W3C//DTD SVG 1.1//EN" "http://www.w3.org/Graphics/SVG/1.1/DTD/svg11.dtd" >
<svg xmlns="http://www.w3.org/2000/svg">
<metadata>Generated by IcoMoon</metadata>
<defs>
<font id="icomoon" horiz-adv-x="1024">
<font-face units-per-em="1024" ascent="960" descent="-64" />
<missing-glyph horiz-adv-x="1024" />
<glyph unicode="&#x20;" d="" horiz-adv-x="512" />
<glyph unicode="&#x2c;" d="M503.749 544.9h16.492v-196.498h-16.492v196.498z" />
<glyph unicode="&#x2e;" d="M523.733 448c0-6.48-5.253-11.733-11.733-11.733s-11.733 5.253-11.733 11.733c0 6.48 5.253 11.733 11.733 11.733s11.733-5.253 11.733-11.733z" />
<glyph unicode="&#x61;" d="M511.995 136.832c-170.834 0-309.819 138.986-309.819 309.819s138.985 309.819 309.819 309.819c170.835 0 309.815-138.986 309.815-309.819s-138.981-309.819-309.815-309.819zM511.995 739.977c-161.741 0-293.327-131.587-293.327-293.327 0-161.742 131.586-293.327 293.327-293.327 161.738 0 293.322 131.586 293.322 293.327s-131.584 293.327-293.322 293.327zM720.328 368.852h-416.798l209.925 303.612 206.873-303.612zM334.985 385.344h354.146l-175.776 257.976-178.37-257.976z" />
<glyph unicode="&#x64;" d="M511.952 113.623l-247.392 486.994 90.294 179.063 78.882-155.218 78.844 155.218 78.885-155.22 78.885 155.22 90.008-177.229-248.405-488.829zM282.733 601.258l229.224-451.227 229.903 452.425-71.518 140.813-78.877-155.212-78.881 155.214-78.843-155.217-78.881 155.215-72.126-142.011z" />
<glyph unicode="&#x65;" d="M744.449 61.795h-464.911l232.457 790.703 232.454-790.703zM301.577 78.287h420.832l-210.414 715.739-210.417-715.739zM403.197 461.444h219.512v-16.492h-219.512v16.492z" />
<glyph unicode="&#x66;" d="M512.269-34.429l-61.774 210.083c-125.646 28.43-216.327 141.586-216.327 270.956 0 129.214 90.551 242.367 216.011 270.95l61.815 210.162 61.811-210.162c125.462-28.582 216.014-141.733 216.014-270.95 0-129.128-90.434-242.216-215.735-270.79l-61.815-210.249zM511.995 869.275l-48.764-165.792-4.832-1.009c-120.373-25.147-207.739-132.754-207.739-255.864 0-123.258 87.493-230.861 208.040-255.861l4.842-1.003 48.726-165.712 48.76 165.861 4.832 1.011c120.214 25.137 207.467 132.679 207.467 255.704 0 123.112-87.365 230.717-207.74 255.864l-4.832 1.009-48.759 165.792zM242.415 454.857h539.16v-16.492h-539.16v16.492z" />
<glyph unicode="&#x67;" d="M511.995 170.123l-7.793 22.519c-4.083 11.801-100.163 290.135-114.499 389.978-4.052 28.158 4.689 56.332 24.614 79.327 24.012 27.714 60.527 44.261 97.677 44.261 37.216 0 73.765-16.571 97.77-44.327 19.884-22.989 28.576-51.145 24.48-79.277-14.298-99.825-110.377-378.16-114.46-389.961l-7.79-22.519zM511.995 689.715c-31.95 0-64.601-14.779-85.213-38.567-16.742-19.325-24.113-42.827-20.755-66.183 11.761-81.91 82.228-294.002 105.969-364.093 23.74 70.097 94.199 282.187 105.928 364.089 3.399 23.341-3.93 46.819-20.631 66.131-20.604 23.824-53.291 38.624-85.297 38.624zM511.995 114.171c-183.33 0-332.48 149.152-332.48 332.48 0 183.33 149.15 332.48 332.48 332.48 183.328 0 332.476-149.149 332.476-332.48 0-183.328-149.148-332.48-332.476-332.48zM511.995 762.639c-174.236 0-315.988-141.751-315.988-315.988s141.751-315.987 315.988-315.987c174.234 0 315.983 141.75 315.983 315.987s-141.75 315.988-315.983 315.988z" />
<glyph unicode="&#x68;" d="M119.286 113.085l387.574 662.238 398.094-662.007-397.943 207.217-387.724-207.447zM506.904 339.182l353.749-184.211-353.6 588.026-344.009-587.796 343.859 183.981zM876.868 128.421l-364.893 378.527-364.873-378.527-11.873 11.443 376.747 390.847 376.762-390.847z" />
<glyph unicode="&#x69;" d="M512.033 123.034c-178.444 0-323.62 145.165-323.62 323.598 0 178.443 145.176 323.617 323.62 323.617 178.402 0 323.538-145.174 323.538-323.617 0.001-178.433-145.136-323.598-323.538-323.598zM512.033 753.756c-169.351 0-307.127-137.775-307.127-307.125 0-169.341 137.777-307.106 307.127-307.106 169.306 0 307.046 137.765 307.046 307.106 0 169.35-137.74 307.125-307.046 307.125zM512.033 171.179c-151.896 0-275.474 123.567-275.474 275.453 0 151.908 123.578 275.494 275.474 275.494s275.471-123.586 275.471-275.494c0-151.887-123.575-275.453-275.471-275.453zM512.033 705.632c-142.802 0-258.981-116.187-258.981-259.001 0-142.789 116.179-258.961 258.981-258.961 142.799 0 258.979 116.172 258.979 258.961 0 142.814-116.18 259.001-258.979 259.001z" />
<glyph unicode="&#x6a;" d="M511.975 169.019c-153.075 0-277.612 124.547-277.612 277.632s124.535 277.629 277.612 277.629c153.093 0 277.647-124.544 277.647-277.629s-124.553-277.632-277.647-277.632zM511.975 707.788c-143.982 0-261.12-117.146-261.12-261.137 0-143.993 117.138-261.14 261.12-261.14 144.002 0 261.155 117.146 261.155 261.14 0 143.991-117.153 261.137-261.155 261.137zM511.975 365.993c-44.454 0-80.622 36.181-80.622 80.658s36.168 80.66 80.622 80.66c44.483 0 80.678-36.183 80.678-80.66s-36.194-80.658-80.678-80.658zM511.975 510.818c-35.36 0-64.129-28.785-64.129-64.167s28.768-64.166 64.129-64.166c35.392 0 64.185 28.785 64.185 64.166s-28.794 64.167-64.185 64.167z" />
<glyph unicode="&#x6b;" d="M744.449 61.795h-464.911l232.457 790.703 232.454-790.703zM301.577 78.287h420.832l-210.414 715.739-210.417-715.739zM503.749 823.263h16.492v-753.222h-16.492v753.222z" />
<glyph unicode="&#x6f;" d="M511.995 304.593c-78.331 0-142.058 63.728-142.058 142.058s63.727 142.057 142.058 142.057c78.327 0 142.053-63.727 142.053-142.057s-63.726-142.058-142.053-142.058zM511.995 572.215c-69.237 0-125.565-56.329-125.565-125.565 0-69.234 56.328-125.565 125.565-125.565 69.235 0 125.561 56.332 125.561 125.565 0 69.237-56.326 125.565-125.561 125.565zM511.995-27.721l-60.99 207.386c-123.622 28.138-212.836 139.624-212.836 266.986 0 127.26 89.097 238.696 212.56 266.869l60.99 207.517 60.949-207.35c123.806-28.038 213.152-139.544 213.152-267.036 0-127.362-89.213-238.848-212.838-266.986l-60.988-207.386zM511.719 862.553l-47.938-163.107-4.832-1.009c-118.373-24.741-204.29-130.63-204.29-251.786 0-121.252 86.029-227.192 204.56-251.899l4.833-1.007 47.941-163.011 47.939 163.011 4.836 1.007c118.53 24.707 204.56 130.648 204.56 251.899 0 121.377-86.159 227.333-204.867 251.939l-4.839 1.004-47.905 162.959z" />
<glyph unicode="&#x70;" d="M513.36 62.919l-81.632 102.726v560.385l80.31 104.476 80.224-104.479v-560.302l-78.902-102.806zM448.22 171.402l64.914-81.691 62.636 81.612v549.104l-63.741 83.009-63.809-83.011v-549.023zM439.974 731.473h144.043v-16.492h-144.043v16.492zM439.974 176.77h144.043v-16.492h-144.043v16.492z" />
<glyph unicode="&#x71;" d="M511.995-20.852c-65.973 0-130.796 29.356-173.401 78.532-35.076 40.485-50.474 90.014-43.358 139.463 26.157 181.808 207.142 706.185 208.966 711.461l7.793 22.527 7.791-22.527c1.83-5.275 182.788-529.653 208.945-711.46 7.124-49.44-8.267-98.966-43.337-139.452-42.604-49.183-107.424-78.544-173.399-78.544zM511.995 880.454c-35.11-103.050-177.613-527.031-200.434-685.661-6.424-44.642 7.604-89.5 39.5-126.314 38.925-44.927 100.592-72.839 160.934-72.839s122.009 27.916 160.934 72.851c31.889 36.815 45.909 81.669 39.479 126.303-22.823 158.63-165.307 582.61-200.413 685.66zM301.773 163.124h420.403v-16.492h-420.403v16.492z" />
<glyph unicode="&#x72;" d="M511.737 226.118l-249.364 490.342h498.73l-249.366-490.342zM289.262 699.966l222.475-437.466 222.477 437.466h-444.952zM511.737 61.521c-14.431 0-28.623 6.435-37.961 17.205-7.962 9.19-11.449 20.511-9.816 31.886 5.051 35.114 38.561 132.273 39.985 136.393l7.791 22.535 7.793-22.531c1.425-4.121 34.957-101.282 40.026-136.389 1.643-11.358-1.831-22.668-9.786-31.853-9.347-10.799-23.565-17.245-38.032-17.245zM511.74 218.493c-10.449-31.538-28.082-86.787-31.456-110.228-1.207-8.41 2.573-14.829 5.956-18.735 6.157-7.102 15.927-11.515 25.498-11.515 9.603 0 19.399 4.425 25.564 11.546 3.378 3.898 7.146 10.304 5.931 18.699-3.387 23.446-21.034 78.694-31.492 110.233zM285.361 706.57l-23.52 3.855c-4.303 0.704-105.702 17.402-139.047 29.665-10.767 3.976-19.053 12.427-23.343 23.8-5.036 13.358-3.946 28.914 2.922 41.614 8.515 15.721 25.68 26.278 42.714 26.278 8.492 0 16.513-2.613 23.194-7.555 28.506-21.192 98.026-96.878 100.972-100.089l16.108-17.568zM145.085 815.29c-10.984 0-22.584-7.252-28.211-17.636-4.552-8.422-5.317-19.13-1.993-27.943 1.821-4.832 5.664-11.21 13.615-14.147 22.254-8.183 79.258-18.932 111.972-24.728-22.77 24.195-62.988 66.001-82.013 80.144-3.861 2.857-8.364 4.31-13.37 4.31zM738.651 706.572l16.102 17.564c2.948 3.211 72.451 78.903 100.979 100.083 6.672 4.949 14.685 7.564 23.18 7.564 17.061 0 34.221-10.563 42.705-26.285 6.874-12.683 7.972-28.237 2.943-41.595-4.287-11.378-12.574-19.834-23.333-23.809-33.34-12.267-134.763-28.964-139.062-29.669l-23.514-3.854zM878.913 815.29c-4.999 0-9.49-1.452-13.351-4.314-19.045-14.143-59.261-55.947-82.028-80.143 32.719 5.798 89.738 16.547 111.987 24.735 7.945 2.933 11.781 9.313 13.606 14.147 3.319 8.812 2.544 19.519-2.017 27.94-5.605 10.388-17.196 17.636-28.197 17.636z" />
<glyph unicode="&#x73;" d="M511.18 110.031l-250.23 449.364 7.219 4.006c27.783 15.423 57.62 28.326 88.783 38.403-0.698 5.092-1.284 10.713-1.284 16.448 0 86.221 70.111 156.367 156.286 156.367 86.177 0 156.285-70.147 156.285-156.367 0-5.754-0.567-11.286-1.289-16.666 30.935-10.175 60.808-23.287 88.892-39.025l7.2-4.035-251.864-448.496zM283.43 552.924l227.81-409.103 229.308 408.327c-27.009 14.525-55.636 26.575-85.214 35.854l-6.726 2.107 1.035 6.97c1.096 7.373 2.106 14.192 2.106 21.175 0 77.127-62.711 139.875-139.793 139.875s-139.794-62.748-139.794-139.875c0-6.717 0.926-13.173 2.136-20.918l1.101-7.050-6.818-2.102c-29.81-9.194-58.414-21.039-85.151-35.26zM511.955 531.597c-47.784 0-86.658 38.892-86.658 86.698 0 47.828 38.874 86.738 86.658 86.738 47.827 0 86.734-38.909 86.734-86.738 0-47.806-38.907-86.698-86.734-86.698zM511.955 688.539c-38.688 0-70.165-31.51-70.165-70.245 0-38.711 31.477-70.205 70.165-70.205 38.731 0 70.241 31.495 70.241 70.205 0.001 38.735-31.51 70.245-70.241 70.245z" />
<glyph unicode="&#x74;" d="M680.888 222.382c-27.812 0-53.588 15.018-67.273 39.194-10.175 17.904-12.756 38.718-7.269 58.588 5.496 19.911 18.429 36.484 36.411 46.667 11.585 6.587 24.73 10.074 38.006 10.074 27.767 0 53.532-14.995 67.246-39.129 21.014-37.040 7.96-84.294-29.090-105.344-11.616-6.576-24.763-10.051-38.031-10.051zM680.764 360.412c-10.424 0-20.752-2.742-29.868-7.925-14.157-8.020-24.329-21.054-28.652-36.712-4.312-15.623-2.284-31.982 5.717-46.062 10.77-19.024 31.049-30.839 52.927-30.839 10.424 0 20.761 2.734 29.892 7.904 29.139 16.551 39.411 53.725 22.886 82.853-10.785 18.983-31.060 30.781-52.902 30.781zM343.196 230.579c-25.469 0-49.098 13.751-61.67 35.888-19.243 33.968-7.262 77.28 26.703 96.556 10.627 6.024 22.667 9.207 34.826 9.207 25.508 0 49.133-13.766 61.655-35.924 9.33-16.447 11.697-35.552 6.665-53.785-5.035-18.231-16.869-33.405-33.323-42.721-10.636-6.031-22.689-9.22-34.855-9.22zM343.055 355.738c-9.315 0-18.541-2.441-26.689-7.062-26.060-14.789-35.253-48.019-20.495-74.074 9.641-16.976 27.779-27.529 47.324-27.529 9.32 0 18.56 2.447 26.724 7.074 12.621 7.148 21.697 18.783 25.556 32.763 3.864 13.989 2.045 28.644-5.117 41.271-9.609 17-27.732 27.557-47.302 27.557zM514.256 518.982c-26.835 0-51.736 14.483-64.986 37.799-20.265 35.82-7.625 81.477 28.171 101.793 11.196 6.345 23.876 9.697 36.678 9.697 26.855 0 51.775-14.511 65.030-37.87 9.832-17.326 12.318-37.456 6.997-56.68-5.315-19.22-17.789-35.207-35.118-45.013-11.223-6.362-23.937-9.726-36.772-9.726zM514.118 651.78c-9.957 0-19.825-2.612-28.541-7.55-27.894-15.832-37.746-51.412-21.963-79.312 10.319-18.158 29.728-29.443 50.641-29.443 9.988 0 19.889 2.621 28.641 7.584 13.501 7.638 23.213 20.090 27.357 35.060 4.14 14.974 2.206 30.651-5.449 44.144-10.335 18.208-29.755 29.519-50.687 29.519zM680.948 123.36c-63.42 0-122.237 34.241-153.504 89.363-6.671 11.798-11.931 24.357-15.727 37.511-13.066-43.099-42.103-79.728-81.604-102.207-26.514-15.007-56.519-22.934-86.788-22.934-0.002 0 0 0-0.002 0-63.461 0-122.293 34.257-153.545 89.395-23.217 40.941-29.089 88.489-16.537 133.884 12.552 45.397 42.032 83.186 83.005 106.399 26.425 14.952 56.358 22.854 86.563 22.854 14.841 0 29.529-1.85 43.849-5.516-10.080 10.493-18.733 22.073-25.824 34.579-47.912 84.555-18.113 192.353 66.423 240.3 26.5 15.019 56.505 22.955 86.775 22.955 63.427 0 122.258-34.263 153.53-89.417 38.634-68.192 27.131-153.593-26.353-209.109 12.933 2.992 26.164 4.504 39.512 4.504 63.396 0 122.197-34.231 153.46-89.337 23.236-40.961 29.115-88.509 16.556-133.898-12.555-45.387-42.040-83.155-83.022-106.348-26.476-15.028-56.486-22.976-86.769-22.976zM501.274 278.079l7.113-0.322c2.52-0.118 4.888-0.226 7.312-0.226h6.873l1.236-6.76c3.264-17.789 9.312-34.583 17.986-49.925 28.337-49.954 81.661-80.995 139.153-80.995 27.436 0 54.631 7.204 78.637 20.829 37.152 21.030 63.879 55.263 75.261 96.401 11.384 41.133 6.053 84.238-15.006 121.358-28.337 49.956-81.644 80.986-139.117 80.986-16.997 0-33.782-2.703-49.896-8.037l-6.877-2.275-3.696 7.711c-0.231 0.499-0.457 1.001-0.714 1.483-0.172 0.274-0.567 0.86-0.957 1.443-0.567 0.85-1.128 1.696-1.647 2.574l-3.495 5.932 5.217 4.497c57.482 49.564 72.015 133.524 34.555 199.637-28.346 49.997-81.681 81.056-139.18 81.056-27.425 0-54.618-7.195-78.64-20.81-76.63-43.459-103.639-141.173-60.209-217.82 8.934-15.757 20.629-29.908 34.761-42.054l5.363-4.611-3.738-6.003c-1.28-2.054-2.429-4.18-3.762-6.738l-3.337-6.408-6.791 2.462c-17.68 6.415-36.141 9.666-54.87 9.666-27.364 0-54.489-7.163-78.437-20.712-37.137-21.041-63.856-55.29-75.237-96.445-11.377-41.147-6.054-84.241 14.991-121.353 28.328-49.985 81.664-81.038 139.197-81.038 27.428 0 54.625 7.188 78.649 20.785 40.61 23.112 69.027 62.743 77.946 108.721l1.359 6.99z" />
<glyph unicode="&#x75;" d="M512.247 103.695c-0.014 0-0.010 0-0.024 0-115.332 0.003-229.765 30.020-330.93 86.809l-7.191 4.038 338.941 603.706 336.835-604.849-7.214-4.011c-100.874-56.060-215.142-85.693-330.417-85.693zM196.582 200.893c96.914-52.818 205.864-80.701 315.643-80.706 0.007 0 0.017 0 0.022 0 109.74 0 218.517 27.517 315.164 79.655l-314.428 564.612-316.401-563.562zM511.995 288.834c-64.127 0-116.3 52.188-116.3 116.337 0 64.126 52.173 116.297 116.3 116.297 64.125 0 116.296-52.171 116.296-116.297 0-64.149-52.17-116.337-116.296-116.337zM511.995 504.976c-55.033 0-99.808-44.772-99.808-99.805 0-55.054 44.774-99.844 99.808-99.844s99.804 44.791 99.804 99.844c0 55.032-44.771 99.805-99.804 99.805z" />
<glyph unicode="&#x77;" d="M511.995-20.852c-65.975 0-130.796 29.361-173.401 78.543-35.071 40.486-50.462 90.011-43.339 139.452 26.158 181.808 207.123 706.185 208.947 711.461l7.793 22.53 7.791-22.53c1.83-5.275 182.788-529.653 208.945-711.46 7.124-49.44-8.267-98.966-43.337-139.452-42.604-49.183-107.424-78.544-173.399-78.544zM511.995 880.451c-35.106-103.049-177.592-527.028-200.416-685.658-6.431-44.634 7.59-89.488 39.481-126.303 38.925-44.935 100.592-72.851 160.934-72.851s122.009 27.916 160.934 72.851c31.889 36.815 45.909 81.669 39.479 126.303-22.823 158.63-165.307 582.611-200.413 685.658zM511.995 71.986c-65.943 0-119.593 53.647-119.593 119.589 0 65.946 53.651 119.593 119.593 119.593 65.921 0 119.549-53.647 119.549-119.593 0-65.94-53.629-119.589-119.549-119.589zM511.995 294.676c-56.849 0-103.101-46.252-103.101-103.101s46.252-103.096 103.101-103.096c56.825 0 103.057 46.247 103.057 103.096s-46.232 103.101-103.057 103.101z" />
<glyph unicode="&#x79;" d="M511.955 156.28c-160.112 0-290.371 130.267-290.371 290.392 0 160.111 130.26 290.371 290.371 290.371 160.152 0 290.447-130.26 290.447-290.371 0-160.125-130.295-290.392-290.447-290.392zM511.955 720.55c-151.019 0-273.879-122.861-273.879-273.878 0-151.028 122.861-273.9 273.879-273.9 151.060 0 273.955 122.871 273.955 273.9 0 151.018-122.895 273.878-273.955 273.878zM503.709 728.796h16.492v-564.27h-16.492v564.27z" />
</font>
</defs>
</svg>
